<svg width="181" height="125" viewBox="0 0 181 125" fill="none" xmlns="http://www.w3.org/2000/svg">
<rect y="6.14795" width="181" height="99.0377" rx="13.6604" fill="#98F175"/>
<rect x="178.268" y="7.5127" width="19.1245" height="131.823" rx="9.56227" transform="rotate(90 178.268 7.5127)" fill="#5BD976"/>
<rect y="26.6387" width="181" height="97.6717" rx="13.6604" fill="#60AB4F"/>
<ellipse cx="109.283" cy="62.1547" rx="66.2528" ry="62.1547" fill="#BCFFA1"/>
<ellipse cx="108.943" cy="61.8136" rx="47.4698" ry="43.3717" fill="#443B43"/>
<ellipse cx="109.145" cy="61.8132" rx="34.0138" ry="31.0774" fill="#796D7B"/>
<circle cx="108.943" cy="61.814" r="20.8321" fill="#3C353D"/>
<rect x="6.83105" y="41.6641" width="19.1245" height="51.2264" rx="9.56227" fill="#63CC5B"/>
<ellipse cx="100.278" cy="56.9819" rx="5.86574" ry="5.02778" fill="#8F8391"/>
<path d="M127.092 71.5063C133.796 60.8921 125.696 49.7192 125.696 49.7192C125.696 49.7192 117.875 55.0263 113.964 63.9646C110.054 72.9029 108.378 82.3998 108.378 82.3998C108.378 82.3998 120.389 82.1205 127.092 71.5063Z" fill="#473D46"/>
<path d="M119.83 86.869C117.865 84.2666 120.947 80.1652 120.947 80.1652L128.49 71.5063C128.49 71.5063 131.851 59.1476 130.166 58.0989C128.48 57.0501 130.684 52.2052 133.796 51.6739C137.137 51.1035 139.959 52.7391 141.618 55.585C144.539 60.5953 141.864 70.8823 139.103 75.9754C135.685 82.2789 128.49 86.031 128.49 86.031C128.49 86.031 121.742 89.3997 119.83 86.869Z" fill="#9E949F"/>
</svg>
